<svg width="21" height="21" viewBox="0 0 21 21" fill="none" xmlns="http://www.w3.org/2000/svg">
<g clip-path="url(#clip0_2076_20)">
<path d="M14.2459 9.37908C14.307 9.44004 14.3555 9.51245 14.3885 9.59218C14.4216 9.67191 14.4386 9.75738 14.4386 9.8437C14.4386 9.93002 14.4216 10.0155 14.3885 10.0952C14.3555 10.1749 14.307 10.2474 14.2459 10.3083L10.3083 14.2458C10.2474 14.3069 10.175 14.3554 10.0952 14.3885C10.0155 14.4216 9.93004 14.4386 9.84372 14.4386C9.75741 14.4386 9.67193 14.4216 9.59221 14.3885C9.51248 14.3554 9.44006 14.3069 9.3791 14.2458L7.41035 12.2771C7.34933 12.2161 7.30093 12.1436 7.26791 12.0639C7.23489 11.9842 7.2179 11.8987 7.2179 11.8125C7.2179 11.7262 7.23489 11.6407 7.26791 11.561C7.30093 11.4813 7.34933 11.4088 7.41035 11.3478C7.53358 11.2246 7.70071 11.1554 7.87497 11.1554C7.96126 11.1554 8.04671 11.1724 8.12643 11.2054C8.20615 11.2384 8.27858 11.2868 8.3396 11.3478L9.84372 12.8533L13.3166 9.37908C13.3776 9.31796 13.45 9.26948 13.5297 9.23639C13.6094 9.20331 13.6949 9.18628 13.7812 9.18628C13.8675 9.18628 13.953 9.20331 14.0327 9.23639C14.1125 9.26948 14.1849 9.31796 14.2459 9.37908Z" fill="white"/>
<path d="M4.59375 0C4.7678 0 4.93472 0.0691404 5.05779 0.192211C5.18086 0.315282 5.25 0.482202 5.25 0.65625V1.3125H15.75V0.65625C15.75 0.482202 15.8191 0.315282 15.9422 0.192211C16.0653 0.0691404 16.2322 0 16.4062 0C16.5803 0 16.7472 0.0691404 16.8703 0.192211C16.9934 0.315282 17.0625 0.482202 17.0625 0.65625V1.3125H18.375C19.0712 1.3125 19.7389 1.58906 20.2312 2.08134C20.7234 2.57363 21 3.24131 21 3.9375V18.375C21 19.0712 20.7234 19.7389 20.2312 20.2312C19.7389 20.7234 19.0712 21 18.375 21H2.625C1.92881 21 1.26113 20.7234 0.768845 20.2312C0.276562 19.7389 0 19.0712 0 18.375V3.9375C0 3.24131 0.276562 2.57363 0.768845 2.08134C1.26113 1.58906 1.92881 1.3125 2.625 1.3125H3.9375V0.65625C3.9375 0.482202 4.00664 0.315282 4.12971 0.192211C4.25278 0.0691404 4.4197 0 4.59375 0ZM1.3125 5.25V18.375C1.3125 18.7231 1.45078 19.0569 1.69692 19.3031C1.94306 19.5492 2.2769 19.6875 2.625 19.6875H18.375C18.7231 19.6875 19.0569 19.5492 19.3031 19.3031C19.5492 19.0569 19.6875 18.7231 19.6875 18.375V5.25H1.3125Z" fill="white"/>
</g>
<defs>
<clipPath id="clip0_2076_20">
<rect width="21" height="21" fill="white"/>
</clipPath>
</defs>
</svg>
