<svg width="21" height="20" viewBox="0 0 21 20" fill="none" xmlns="http://www.w3.org/2000/svg">
<g clip-path="url(#clip0_2076_9)">
<path fill-rule="evenodd" clip-rule="evenodd" d="M14.4375 18.158C15.8299 18.158 17.1652 17.6478 18.1498 16.7397C19.1344 15.8317 19.6875 14.6001 19.6875 13.3158C19.6875 12.0316 19.1344 10.8 18.1498 9.89194C17.1652 8.98387 15.8299 8.47372 14.4375 8.47372C13.0451 8.47372 11.7098 8.98387 10.7252 9.89194C9.74062 10.8 9.1875 12.0316 9.1875 13.3158C9.1875 14.6001 9.74062 15.8317 10.7252 16.7397C11.7098 17.6478 13.0451 18.158 14.4375 18.158ZM21 13.3158C21 14.9211 20.3086 16.4606 19.0779 17.5957C17.8472 18.7308 16.178 19.3685 14.4375 19.3685C12.697 19.3685 11.0278 18.7308 9.79711 17.5957C8.5664 16.4606 7.875 14.9211 7.875 13.3158C7.875 11.7106 8.5664 10.1711 9.79711 9.03597C11.0278 7.90087 12.697 7.26318 14.4375 7.26318C16.178 7.26318 17.8472 7.90087 19.0779 9.03597C20.3086 10.1711 21 11.7106 21 13.3158Z" fill="white"/>
<path d="M12.3874 14.4586C12.4491 15.1801 13.0673 15.7418 14.1764 15.8096V16.3422H14.6685V15.8059C15.817 15.7321 16.4877 15.1656 16.4877 14.3448C16.4877 13.5967 15.9758 13.2118 15.057 13.0132L14.6685 12.9285V11.4759C15.162 11.5279 15.4744 11.7761 15.5492 12.1199H16.4129C16.3512 11.4238 15.7041 10.8803 14.6685 10.821V10.2896H14.1764V10.8343C13.1959 10.9227 12.5292 11.4662 12.5292 12.2361C12.5292 12.9164 13.0253 13.3498 13.8509 13.5265L14.1764 13.6004V15.1402C13.6724 15.0699 13.3377 14.8133 13.2629 14.4586H12.3874ZM14.1724 12.8196C13.6881 12.7167 13.4256 12.5048 13.4256 12.1877C13.4256 11.8318 13.7091 11.5655 14.1764 11.488V12.8196H14.1724ZM14.7394 13.7226C15.3287 13.8485 15.5991 14.0519 15.5991 14.4114C15.5991 14.8218 15.2618 15.1026 14.6685 15.1547V13.7081L14.7394 13.7226Z" fill="white"/>
<path d="M1.3125 0C0.964403 0 0.630564 0.127538 0.384422 0.354557C0.138281 0.581576 0 0.889479 0 1.21053L0 10.8948C0 11.2158 0.138281 11.5237 0.384422 11.7508C0.630564 11.9778 0.964403 12.1053 1.3125 12.1053H6.67144C6.74844 11.6881 6.86131 11.2846 7.01006 10.8948H3.9375C3.9375 10.2527 3.66094 9.63688 3.16866 9.18284C2.67637 8.7288 2.00869 8.47373 1.3125 8.47373V3.6316C2.00869 3.6316 2.67637 3.37652 3.16866 2.92248C3.66094 2.46845 3.9375 1.85264 3.9375 1.21053H17.0625C17.0625 1.85264 17.3391 2.46845 17.8313 2.92248C18.3236 3.37652 18.9913 3.6316 19.6875 3.6316V7.90236C20.1863 8.31394 20.6286 8.78362 21 9.29931V1.21053C21 0.889479 20.8617 0.581576 20.6156 0.354557C20.3694 0.127538 20.0356 0 19.6875 0L1.3125 0Z" fill="white"/>
<path d="M13.1224 6.15316L13.125 6.05268C13.1247 5.63576 13.0077 5.22598 12.7853 4.863C12.5629 4.50003 12.2427 4.19618 11.8556 3.98088C11.4685 3.76557 11.0277 3.64611 10.5758 3.63407C10.124 3.62202 9.67643 3.7178 9.2765 3.91212C8.87657 4.10645 8.53782 4.39273 8.29307 4.74325C8.04832 5.09377 7.90585 5.49664 7.87947 5.91284C7.8531 6.32905 7.9437 6.74449 8.14251 7.11892C8.34131 7.49335 8.64159 7.81409 9.01425 8.05006C10.1488 7.05522 11.579 6.39481 13.1224 6.15316Z" fill="white"/>
</g>
<defs>
<clipPath id="clip0_2076_9">
<rect width="21" height="19.3685" fill="white"/>
</clipPath>
</defs>
</svg>
