<svg width="21" height="21" viewBox="0 0 21 21" fill="none" xmlns="http://www.w3.org/2000/svg">
<path d="M12.4688 0C12.6428 0 12.8097 0.0691404 12.9328 0.192211C13.0559 0.315282 13.125 0.482202 13.125 0.65625C13.125 0.830298 13.1941 0.997218 13.3172 1.12029C13.4403 1.24336 13.6072 1.3125 13.7812 1.3125C13.9553 1.3125 14.1222 1.38164 14.2453 1.50471C14.3684 1.62778 14.4375 1.7947 14.4375 1.96875V2.625C14.4375 2.79905 14.3684 2.96597 14.2453 3.08904C14.1222 3.21211 13.9553 3.28125 13.7812 3.28125H7.21875C7.0447 3.28125 6.87778 3.21211 6.75471 3.08904C6.63164 2.96597 6.5625 2.79905 6.5625 2.625V1.96875C6.5625 1.7947 6.63164 1.62778 6.75471 1.50471C6.87778 1.38164 7.0447 1.3125 7.21875 1.3125C7.3928 1.3125 7.55972 1.24336 7.68279 1.12029C7.80586 0.997218 7.875 0.830298 7.875 0.65625C7.875 0.482202 7.94414 0.315282 8.06721 0.192211C8.19028 0.0691404 8.3572 0 8.53125 0L12.4688 0Z" fill="white"/>
<path d="M3.9375 3.28125C3.9375 3.1072 4.00664 2.94028 4.12971 2.81721C4.25278 2.69414 4.4197 2.625 4.59375 2.625H5.25C5.42405 2.625 5.59097 2.55586 5.71404 2.43279C5.83711 2.30972 5.90625 2.1428 5.90625 1.96875C5.90625 1.7947 5.83711 1.62778 5.71404 1.50471C5.59097 1.38164 5.42405 1.3125 5.25 1.3125H4.59375C4.07161 1.3125 3.57085 1.51992 3.20163 1.88913C2.83242 2.25835 2.625 2.75911 2.625 3.28125V19.0312C2.625 19.5534 2.83242 20.0542 3.20163 20.4234C3.57085 20.7926 4.07161 21 4.59375 21H16.4062C16.9284 21 17.4292 20.7926 17.7984 20.4234C18.1676 20.0542 18.375 19.5534 18.375 19.0312V3.28125C18.375 2.75911 18.1676 2.25835 17.7984 1.88913C17.4292 1.51992 16.9284 1.3125 16.4062 1.3125H15.75C15.576 1.3125 15.409 1.38164 15.286 1.50471C15.1629 1.62778 15.0938 1.7947 15.0938 1.96875C15.0938 2.1428 15.1629 2.30972 15.286 2.43279C15.409 2.55586 15.576 2.625 15.75 2.625H16.4062C16.5803 2.625 16.7472 2.69414 16.8703 2.81721C16.9934 2.94028 17.0625 3.1072 17.0625 3.28125V19.0312C17.0625 19.2053 16.9934 19.3722 16.8703 19.4953C16.7472 19.6184 16.5803 19.6875 16.4062 19.6875H4.59375C4.4197 19.6875 4.25278 19.6184 4.12971 19.4953C4.00664 19.3722 3.9375 19.2053 3.9375 19.0312V3.28125Z" fill="white"/>
<path d="M14.2459 10.3085C14.3691 10.1852 14.4383 10.0181 14.4383 9.84385C14.4383 9.66958 14.3691 9.50245 14.2459 9.37922C14.1226 9.256 13.9555 9.18677 13.7812 9.18677C13.607 9.18677 13.4398 9.256 13.3166 9.37922L9.84372 12.8534L8.3396 11.348C8.21637 11.2247 8.04924 11.1555 7.87497 11.1555C7.70071 11.1555 7.53358 11.2247 7.41035 11.348C7.28712 11.4712 7.2179 11.6383 7.2179 11.8126C7.2179 11.9869 7.28712 12.154 7.41035 12.2772L9.3791 14.246C9.44006 14.3071 9.51248 14.3556 9.59221 14.3887C9.67193 14.4217 9.75741 14.4388 9.84372 14.4388C9.93004 14.4388 10.0155 14.4217 10.0952 14.3887C10.175 14.3556 10.2474 14.3071 10.3083 14.246L14.2459 10.3085Z" fill="white"/>
</svg>
