<svg width="27" height="27" viewBox="0 0 27 27" fill="none" xmlns="http://www.w3.org/2000/svg">
<g clip-path="url(#clip0_2076_2)">
<path fill-rule="evenodd" clip-rule="evenodd" d="M26.7536 8.68392C26.8322 8.7623 26.8945 8.8554 26.937 8.95791C26.9796 9.06042 27.0015 9.17031 27.0015 9.28129C27.0015 9.39228 26.9796 9.50217 26.937 9.60467C26.8945 9.70718 26.8322 9.80029 26.7536 9.87867L21.6911 14.9412C21.6127 15.0197 21.5196 15.0821 21.4171 15.1246C21.3146 15.1672 21.2047 15.1891 21.0937 15.1891C20.9827 15.1891 20.8728 15.1672 20.7703 15.1246C20.6678 15.0821 20.5747 15.0197 20.4963 14.9412L17.9651 12.4099C17.8067 12.2515 17.7177 12.0366 17.7177 11.8125C17.7177 11.5885 17.8067 11.3736 17.9651 11.2152C18.1235 11.0567 18.3384 10.9677 18.5625 10.9677C18.7865 10.9677 19.0014 11.0567 19.1598 11.2152L21.0937 13.1507L25.5588 8.68392C25.6372 8.60534 25.7303 8.543 25.8328 8.50047C25.9353 8.45793 26.0452 8.43604 26.1562 8.43604C26.2672 8.43604 26.3771 8.45793 26.4796 8.50047C26.5821 8.543 26.6752 8.60534 26.7536 8.68392Z" fill="white"/>
<path d="M1.6875 23.625C1.6875 23.625 0 23.625 0 21.9375C0 20.25 1.6875 15.1875 10.125 15.1875C18.5625 15.1875 20.25 20.25 20.25 21.9375C20.25 23.625 18.5625 23.625 18.5625 23.625H1.6875ZM10.125 13.5C11.4677 13.5 12.7553 12.9666 13.7047 12.0172C14.6541 11.0678 15.1875 9.78016 15.1875 8.4375C15.1875 7.09484 14.6541 5.80717 13.7047 4.85777C12.7553 3.90837 11.4677 3.375 10.125 3.375C8.78234 3.375 7.49468 3.90837 6.54527 4.85777C5.59587 5.80717 5.0625 7.09484 5.0625 8.4375C5.0625 9.78016 5.59587 11.0678 6.54527 12.0172C7.49468 12.9666 8.78234 13.5 10.125 13.5Z" fill="white"/>
</g>
<defs>
<clipPath id="clip0_2076_2">
<rect width="27" height="27" fill="white"/>
</clipPath>
</defs>
</svg>
